{"title":"Stage 8 - Tour de France 2012 - Thibaut Pinot","uid":7424631,"size":434514856,"categoryP":"video","categoryS":"other","magnet":"?xt=urn:btih:b9a40465858f4c0557dedabfd6e0dac801c1b1fa&amp;dn=Stage+8+-+Tour+de+France+2012+-+Thibaut+Pinot&amp;tr=udp%3A%2F%2Ftracker.openbittorrent.com%3A80&amp;tr=udp%3A%2F%2Fopen.demonii.com%3A1337&amp;tr=udp%3A%2F%2Ftracker.coppersurfer.tk%3A6969&amp;tr=udp%3A%2F%2Fexodus.desync.com%3A6969","seeders":0,"leechers":0,"uploader":"Kaptan_","files":1,"time":1341768943,"description":"Last 16,7km.\nCommentary in Spanish.\nHD 720p.\n\n Duration: 00:36:08.00, start: 0.000000, bitrate: 1603 kb/s\n    Stream #0.0(und): Video: h264 (Main), yuv420p, 1280x720 [PAR 1:1 DAR 16:9], 1500 kb/s, 24.99 fps, 25 tbr, 25 tbn, 50 tbc\n    Stream #0.1(und): Audio: mp3, 44100 Hz, stereo, s16, 95 kb/s","torrent":{"xt":"urn:btih:b9a40465858f4c0557dedabfd6e0dac801c1b1fa","amp;dn":"Stage+8+-+Tour+de+France+2012+-+Thibaut+Pinot","amp;tr":["udp%3A%2F%2Ftracker.openbittorrent.com%3A80","udp%3A%2F%2Fopen.demonii.com%3A1337","udp%3A%2F%2Ftracker.coppersurfer.tk%3A6969","udp%3A%2F%2Fexodus.desync.com%3A6969"],"infoHash":"b9a40465858f4c0557dedabfd6e0dac801c1b1fa","infoHashBuffer":{"type":"Buffer","data":[185,164,4,101,133,143,76,5,87,222,218,191,214,224,218,200,1,193,177,250]},"announce":[],"urlList":[]}}